<?xml version="1.0" encoding="UTF-8"?>
<!DOCTYPE svg PUBLIC "-//W3C//DTD SVG 1.1//EN" "http://www.w3.org/Graphics/SVG/1.1/DTD/svg11.dtd">
<!-- Creator: CorelDRAW 2021 (64-Bit) -->
<svg xmlns="http://www.w3.org/2000/svg" xml:space="preserve" width="75.9595mm" height="46.7044mm" version="1.1" style="shape-rendering:geometricPrecision; text-rendering:geometricPrecision; image-rendering:optimizeQuality; fill-rule:evenodd; clip-rule:evenodd"
viewBox="0 0 7595.96 4670.45"
 xmlns:xlink="http://www.w3.org/1999/xlink"
 xmlns:xodm="http://www.corel.com/coreldraw/odm/2003">
 <defs>
  <style type="text/css">
   <![CDATA[
    .fil0 {fill:green}
    .fil1 {fill:green;fill-rule:nonzero}
    .fil2 {fill:#0D580C;fill-rule:nonzero}
   ]]>
  </style>
 </defs>
 <g id="Layer_x0020_1">
  <metadata id="CorelCorpID_0Corel-Layer"/>
  <g id="_2343421808928">
   <path class="fil0" d="M2970.04 407.53c-259.68,9.67 -403.72,94.95 -519.29,245.45 -144.76,188.49 -143.55,344.62 -122.09,607.31 -149.33,153.34 -258.06,280.46 -229.44,563.64 32.27,319.18 285.04,492.77 289.39,504.54 2.31,296.39 5.06,397.6 180.8,564.96 312.13,297.22 485.25,114.37 573.98,233.61l56.56 81.52c158.6,212.71 493.1,262.42 726.53,171.93 130.98,-50.78 227.57,-139.92 252.5,-146.91 34.12,-9.6 526.91,172.08 794.57,-302.37 55.96,-99.2 78.54,-180.09 98.11,-302.19 192.3,-49.38 327.21,-193.64 392.51,-382.06 117.51,-339.06 -81.6,-567.11 -80.62,-634.37 0.91,-62.93 189.28,-285.32 7.4,-624.74 -85.83,-160.18 -234.95,-289.12 -441.37,-348.58 -53.13,-341.09 -309.16,-533.48 -624.57,-540.81 -84.13,-1.95 -308.84,58.82 -328.95,53.52 -30.13,-7.94 -241.48,-237.82 -606.77,-116.89 -179.56,59.44 -361.86,220.87 -419.25,372.44zm572.06 1770.15l8.46 10.16c8.36,15.95 1.97,-2.99 0.23,15.2 -45.62,-2.79 -8.3,2.85 -24.17,-17.27 -3.22,-18.36 0.16,-9.77 -17.22,-24.89 -10.74,-9.35 -19.24,-13.59 -29.93,-21.99 -18.8,-14.78 -29.92,-26.99 -40.89,-47.24 -25.82,-12.3 -14.45,-2.33 -31.19,-24.37 -25.39,-10.89 -38.38,-32.15 -58.92,-50.33 -23.49,-20.78 -38.5,-24.55 -53.13,-49.33l185.63 -3.06 61.13 213.12zm625.47 -1262.42c35.68,0.95 50.23,-6.73 76.01,-17.66 2.73,-9.16 10.29,-11.05 17.69,-14.07 5.07,-19 4.7,-8.08 14.4,-25.35 4.04,-7.2 5.89,-15.13 9.51,-23.46 7.24,-36.45 -1.56,-44.42 -1.45,-73.84 -9.57,-8.28 -25.84,-32.99 -30.91,-42.74 -22.76,-3.26 -43.59,-38.18 -107.34,-19.6 -113.04,32.95 -102.01,203.81 22.09,216.72zm321.3 764.85c71.35,1.91 100.45,-13.46 152.02,-35.32 5.46,-18.32 20.57,-22.09 35.38,-28.13 10.14,-38 9.4,-16.17 28.78,-50.69 8.09,-14.41 11.8,-30.27 19.04,-46.93 14.48,-72.9 -3.13,-88.85 -2.91,-147.68 -19.14,-16.56 -51.68,-65.98 -61.82,-85.48 -45.52,-6.52 -87.18,-76.38 -214.66,-39.21 -226.1,65.91 -204.05,407.64 44.17,433.44zm-2121.19 9.36l0 4.57c21.41,15.27 54.47,35.48 59.2,61.59 28.61,18.68 59.47,44.08 74.49,71.59 14.5,4.96 1.53,-1.83 15.61,7.08l37.11 30.25c16.57,15.1 27.75,23.84 35.66,46.19 18.69,10.43 14.74,8.79 33.92,23.82l296.5 282.05c20.09,17.62 24.42,17 33.88,38.65 18.28,7.85 12.38,1.7 20.57,19.84 13.76,3.89 2.09,-3.52 22.13,9.05l84.06 89.42c24.6,12.86 20.93,13.09 42.43,34.24 21.45,19.09 34.12,24.25 55.85,48.7 23.34,26.25 25.13,30.63 48.61,48.29l34.24 40.73 136.73 122.09c25.69,23.41 48.67,39.02 72.32,63.08 73.66,74.92 122.27,136.54 234.92,170.67 149.31,45.23 290.19,-28.71 390.74,-127.16l215.18 -190.11c23.15,-21.24 46.1,-40.59 72.07,-63.15 13,-11.28 24.34,-17.67 38.14,-30.14 14.05,-12.68 18.81,-20.25 34.11,-32.89 14.99,-12.38 23.16,-16.99 37.58,-30.71 27.11,-25.78 7.56,-20.76 38.87,-25.34 16,-29.29 -0.18,-13.37 29.94,-28.3 16.29,-30.07 22.39,-27.98 48.51,-48.63 12.25,-9.68 16.42,-15.05 26.27,-24.37 25.34,-24 1.42,-12.05 30.5,-17.01 17.01,-29.61 -2.74,-12.39 29.92,-26.33 14.81,-32.17 21.86,-29.56 48.53,-50.6 12.24,-9.67 16.42,-15.06 26.27,-24.38 25.33,-24 1.41,-12.05 30.49,-17 20.21,-35.18 72.63,-71.82 103.83,-102.11 40.81,-39.61 289.93,-256.92 323.28,-272.67 15.65,-28.88 44.42,-53.26 73.45,-63.03 -9.74,-43.12 -5.48,-19.65 -28.85,-48.36 -25.44,-7.9 -33.12,6.32 -53.6,22.26l-192.73 170.72c-32.93,25.51 -112.26,106.54 -143.92,115.23 -8.55,18.95 -2.26,12.08 -21.49,19.84l-96.51 92.55c-14.04,8.45 -2.97,2.01 -17.22,5.93 -8.54,18.95 -2.26,12.06 -21.48,19.84 -16.25,30 -21.25,29.68 -47.93,49.02 -14.11,10.21 -15.82,13.46 -26.89,23.97 -25.26,23.94 -1.17,12.03 -30.46,17.02 -14.1,25.82 -10.34,22.82 -38.38,34.78 -10.38,29.13 -21.51,26.76 -44.91,45.91 -12.89,10.55 -15.52,16.11 -25.43,24.95 -22.06,19.7 -3.43,8.74 -26.49,12.67 -17.86,32.7 -54.23,58.27 -82.71,81.23 -15.96,12.86 -23.29,23.29 -39.12,36.37l-204.29 175.25 -24.83 22.34c-39.39,32.8 -27.49,36.61 -76.17,59.59 -13.34,24.62 -56.83,62.55 -84.4,75.63 -30.1,23.91 -36.81,32.38 -78.47,44.69 -32.02,31.88 -132.26,31 -173.13,10.47 -69.97,-11.23 -143.99,-88.79 -180.97,-130.15 -22.86,-25.54 -57.46,-54.49 -83.98,-76.87 -32.7,-27.57 -46.81,-48.05 -79.91,-78.16 -10.26,-12.48 -7.45,-6.6 -18.23,-17.22 -9.58,-9.42 -5.85,-5.45 -11.71,-12.96l-4.67 -9.8c-34,-15.2 -157.62,-135.96 -172.67,-163.51l-96.84 -91.97c-28.84,-15.26 -48.11,-31.55 -63.73,-60.14 -26.59,-3.57 -6.76,7.72 -31.9,-15.68 -7.92,-7.38 -13.08,-13.81 -20.47,-22.07 -18.05,-20.18 -27.95,-29.82 -36.01,-45.77 -28.3,-12.09 -32.59,-17.15 -46.84,-43.24 -14.12,-4.78 -1.87,1.2 -16.15,-6.88 -1,-0.56 -13.93,-9.62 -14.66,-10.18l-66.02 -74.91c-26.86,-14.23 -24.21,-9.75 -38.37,-35.51 -49.99,-20.58 -115.2,-103.78 -162.41,-146.42l-160.25 -145.41c-23.79,12.99 -27.45,22.35 -50.71,36.98zm1487.33 -311.73c34.07,40.61 81.16,132.47 110.05,183.07 17.73,31.07 105.6,155.31 97.43,190.53 -19.12,-2.47 -2.52,6.51 -17.65,-8.76 -12.17,-12.29 -160.82,-288.34 -189.83,-318.66 -24.85,6.36 -20.35,8.54 -43.28,16.25l43.28 -62.43zm-40.9 7.51l-36.37 53.74 1.71 37.23c15.12,10.39 77.35,117.9 81.07,142.59l42.69 60.27c-15.73,18.67 -18.25,11.87 -39.83,33.4l-35.6 46.05c4.62,28.23 19.14,105.79 15.84,130.71 1.49,1.85 3.01,4.54 3.82,6.03l23.74 88 45.46 154.56 -19.37 6.32c-27.8,31.85 -72.62,68 -113.85,97.15l-28.78 -105.84 -19.29 -59.71 -16.8 -58.11c-14.75,-41.81 -51.53,-143.48 -47.56,-183.05 -8.2,-8.95 -1.73,-0.53 -12.74,-16.55 -4.65,-6.77 -5.68,-8.91 -10.16,-16.47 -10.29,-17.34 -11.23,-18.34 -19.72,-34.71 -47.43,-7.83 -3.85,-20.87 -128.38,-17.48l-439.58 11.99 -27.46 -33.11c-19.22,-7.77 -12.93,-0.89 -21.48,-19.85 -31.12,-7.69 -22.56,-7.69 -47.25,-34.15 -14.42,-15.44 -23.53,-23.24 -42.44,-34.08 -46.2,-26.51 -68.26,-20.07 -115.68,-3.88l-41.76 40.78c-25.01,77.67 -0.96,109.66 42.95,145.22 124.63,100.93 302.29,279.44 410.84,366.72l104.4 90.46c37.35,33.34 181.84,161.98 196.81,187.05 19.2,7.77 12.92,0.89 21.47,19.85 25.62,7.23 16.15,2.53 38.74,25.8 13.5,13.92 14.03,15.67 30.18,28.75 28.46,23.02 42.97,26.7 61.31,58.23 12.2,-2.12 9.67,-4.64 7.57,7.57 16.42,11.16 21.83,18.54 39.4,29.05 16.74,10.03 32.98,13.69 44.1,23.1l75.48 8.93c94.49,-7.57 180.37,-92.15 263.43,-168.34l658.72 -582.43c16.98,-11.54 -3.46,-2.46 15.3,-6.55 18.57,-25.04 5.15,-13.59 32.57,-27.07 19.68,-32.96 35.04,-41.62 65.45,-65.5 40.66,-31.9 34.71,-47.32 73.63,-58.31 8.55,-18.96 2.27,-12.07 21.48,-19.85 38.59,-64.63 44.21,-19.93 57.24,-131.77 -25.25,-21.68 -19.89,-28.56 -44.76,-49.01 -31.23,-25.67 -58.36,-25.31 -94.59,-24.31 -98.98,52.17 -80.75,63.91 -132.87,104.42l-206.59 182.59 -32.47 -26.3 -83.93 -23.3c-52.73,-3.12 -90.19,5.35 -131.01,30.71 -34.98,21.71 -4.06,10.13 -31.61,15.49 -8.55,18.94 -2.27,12.07 -21.48,19.84 -14.66,26.92 -19.92,26.54 -44.14,44.59 -22.45,16.73 -27.89,30.15 -48.53,42.96 -16.01,14.14 -34.56,30.68 -50.7,49.19 -9.84,-10.43 -4.13,-0.87 -12.5,-15.78l-15.51 -51.3 -25.09 -101.94c13.75,-22.19 30.16,-33.48 49.21,-59.68l-55.89 -109.29c-20.44,-19.16 -28.42,-35.49 -31.63,-60.72 -13.36,-9 -5.33,-0.61 -15.48,-12.62 -6.17,-7.31 -3.28,-5.66 -9.52,-16.04 -11.77,-19.56 -4.27,-9.67 -18.82,-28.46 -13.66,-33.38 -92.2,-168.24 -112.49,-188.39 -15.05,14.78 -28.82,38.57 -40.9,54.61z"/>
   <polygon class="fil1" points="586.83,4173.53 222.35,4173.53 222.35,4653.76 -0,4653.76 -0,3505.39 656.28,3505.39 656.28,3679.83 222.35,3679.83 222.35,3999.9 586.83,3999.9 "/>
   <path id="_1" class="fil1" d="M1146.75 3992.9l-75.64 -2.42c-24.77,0 -45.5,6.73 -61.92,19.65 -16.69,13.19 -29.34,31.76 -38.22,55.18l0 588.45 -221.81 0 0 -853.33 207.54 0 8.62 120.6c16.42,-43.07 37.14,-76.45 62.72,-100.41 25.57,-23.96 54.91,-36.07 88.02,-36.07 9.96,0 19.11,1.08 27.46,2.96 8.61,1.89 17.23,4.04 26.11,6.73l-22.88 198.66z"/>
   <path id="_2" class="fil1" d="M1562.92 4670.45c-112.52,-0.27 -199.74,-39.03 -261.65,-116.83 -62.18,-77.79 -93.14,-177.93 -93.14,-300.41l0 -32.3c0,-128.95 29.88,-233.93 89.37,-314.69 59.76,-81.02 143.75,-121.67 252.23,-121.67 100.41,0 177.4,34.46 230.97,103.37 53.56,68.91 80.48,162.59 80.48,280.76l0 121.41 -430.7 0c3.77,63.26 18.04,113.32 43.07,150.74 25.04,37.42 63.53,55.99 115.48,55.99 44.15,0 81.03,-5.11 110.91,-15.34 29.61,-10.23 61.64,-26.38 95.83,-48.45l57.34 138.63c-30.42,27.99 -71.61,51.41 -123.29,70.26 -51.69,18.84 -107.41,28.26 -166.9,28.53zm-13.19 -711.47c-37.42,0 -65.14,16.43 -83.45,49.27 -18.03,32.84 -29.34,78.06 -34.18,135.13l211.31 0 0 -19.65c0,-51.96 -7.27,-92.6 -21.54,-121.41 -14.53,-28.8 -38.49,-43.34 -72.14,-43.34z"/>
   <path id="_3" class="fil1" d="M2354.87 4431.41c0,-25.3 -9.96,-46.84 -29.34,-64.6 -19.38,-18.04 -57.07,-39.84 -112.79,-65.69 -86.68,-32.57 -151.82,-68.91 -195.43,-109.56 -43.61,-40.37 -65.41,-92.6 -65.41,-156.13 0,-69.45 27.72,-128.4 83.18,-177.39 55.45,-48.99 128.94,-73.49 220.19,-73.49 95.83,0 172.28,25.57 229.35,76.18 56.8,50.88 84.26,114.68 81.57,192.2l-1.62 4.58 -214.54 0c0,-35.8 -7.81,-64.61 -23.69,-86.41 -15.88,-21.81 -39.57,-32.57 -71.61,-32.57 -25.84,0 -47.64,8.34 -65.14,25.03 -17.77,16.96 -26.38,37.42 -26.38,61.65 0,25.3 8.61,45.49 25.84,61.1 17.5,15.61 55.19,36.88 113.6,64.34 89.91,30.95 156.94,67.29 200.81,109.29 43.88,41.72 65.69,96.1 65.69,162.86 0,72.41 -28.81,131.9 -86.95,178.2 -58.15,46.3 -134.86,69.18 -229.89,69.45 -99.33,-0.27 -177.93,-28.53 -235.81,-85.33 -57.87,-56.8 -85.6,-121.14 -82.91,-193.28l2.43 -4.58 201.89 0c1.07,46.3 12.11,79.41 33.11,99.6 20.99,20.46 50.07,30.42 86.68,30.42 31.49,0 55.72,-7.8 72.14,-23.15 16.69,-15.61 25.03,-36.61 25.03,-62.72z"/>
   <path id="_4" class="fil1" d="M2900.52 3903.8c22.61,-37.95 49.79,-67.3 81.56,-88.02 32.03,-20.73 67.03,-31.23 105.25,-31.23 76.45,0 136.48,30.15 180.63,89.91 44.14,60.03 66.49,152.36 66.49,276.99l0 502.31 -222.62 0 0 -503.92c0,-70.53 -7.81,-119.79 -23.15,-147.78 -15.62,-28.27 -39.57,-42.27 -72.14,-42.27 -25.85,0 -48.19,5.12 -67.57,15.35 -19.11,10.23 -35.26,24.76 -48.45,43.87l0 634.75 -221.55 0 0 -1230.19 221.55 0 0 480.23z"/>
   <polygon id="_5" class="fil2" points="3776.72,4171.91 3715.88,4171.91 3715.88,4653.76 3493.53,4653.76 3493.53,3505.39 3715.88,3505.39 3715.88,3975.41 3761.65,3975.41 4005.27,3505.39 4281.46,3505.39 3950.09,4030.05 4305.95,4653.76 4021.96,4653.76 "/>
   <path id="_6" class="fil2" d="M4331.25 4219.29c0,-128.4 30.69,-232.85 91.79,-313.6 61.38,-80.76 147.52,-121.14 258.42,-121.14 110.37,0 196.51,40.38 258.69,121.14 61.92,80.75 92.87,185.2 92.87,313.6l0 18.04c0,128.4 -30.68,232.57 -92.6,312.79 -61.64,80.22 -147.51,120.06 -257.61,120.33 -111.44,-0.27 -197.85,-40.11 -259.23,-120.06 -61.64,-79.95 -92.33,-184.12 -92.33,-313.06l0 -18.04zm221.54 18.04c0,79.41 9.96,142.4 29.61,189.24 19.65,46.83 53.3,70.25 100.41,70.25 45.22,0 78.06,-23.42 97.98,-70.25 19.92,-46.84 29.88,-109.83 29.88,-189.24l0 -18.04c0,-78.33 -9.96,-141.32 -29.88,-188.97 -19.92,-47.65 -53.03,-71.34 -99.33,-71.34 -46.3,0 -79.41,23.96 -99.06,71.88 -19.65,47.64 -29.61,110.63 -29.61,188.43l0 18.04z"/>
   <path id="_7" class="fil2" d="M5361.16 3800.43l8.62 109.56c23.15,-39.84 52.22,-70.79 87.21,-92.6 35,-21.8 75.11,-32.84 120.33,-32.84 44.68,0 83.18,11.85 115.75,35.26 32.57,23.42 57.61,58.96 75.1,106.87 22.62,-44.68 51.69,-79.68 86.95,-104.44 35.53,-25.04 76.99,-37.69 124.37,-37.69 71.33,0 127.86,30.15 169.59,89.91 41.45,60.03 62.18,151.82 62.18,275.38l0 503.92 -222.35 0 0 -503.92c0,-72.14 -7.54,-121.67 -22.88,-149.13 -15.35,-27.19 -38.77,-40.92 -70.26,-40.92 -23.15,0 -43.61,6.73 -61.38,20.19 -18.03,13.19 -32.57,31.77 -44.14,55.45 0.54,13.19 1.07,24.5 1.88,33.92 0.81,9.42 1.08,18.85 1.08,28.54l0 555.87 -221.54 0 0 -503.92c0,-71.07 -7.54,-120.33 -22.88,-148.32 -15.08,-27.73 -38.77,-41.73 -71.07,-41.73 -21.54,0 -40.65,5.39 -57.88,16.15 -16.95,10.77 -31.49,25.85 -43.6,45.23l0 632.59 -222.62 0 0 -853.33 207.54 0z"/>
   <path id="_8" class="fil2" d="M6978.44 4226.29l109.56 0 0 174.97 -109.56 0 0 252.5 -223.96 0 0 -252.5 -414.01 0 -11.04 -136.21 424.24 -759.65 224.77 0 0 720.89zm-450.89 0l226.93 0 0 -414.82 -4.58 -0.81 -20.46 45.76 -201.89 369.87z"/>
   <path id="_9" class="fil2" d="M7468.09 3588.3l0 212.12 116.02 0 0 158.55 -116.02 0 0 434.47c0,36.35 5.39,62.19 15.88,77.26 10.5,15.35 25.04,22.88 43.34,22.88 10.5,0 19.12,-0.54 26.11,-1.88 6.73,-1.35 15.08,-3.5 25.04,-6.73l17.5 163.93c-21,7.54 -41.19,12.93 -60.3,16.16 -19.38,3.5 -40.92,5.11 -65.15,5.38 -72.68,-0.27 -128.13,-22.34 -166.89,-66.49 -38.5,-44.15 -57.88,-113.6 -57.88,-208.89l0 -436.09 -103.37 0 0 -158.55 103.37 0 0 -212.12 222.35 0z"/>
  </g>
 </g>
</svg>
